<?xml version="1.0" encoding="utf-8" standalone="no"?>
<!DOCTYPE svg PUBLIC "-//W3C//DTD SVG 1.1//EN"
  "http://www.w3.org/Graphics/SVG/1.1/DTD/svg11.dtd">
<!-- Created with matplotlib (http://matplotlib.org/) -->
<svg height="288pt" version="1.1" viewBox="0 0 432 288" width="432pt" xmlns="http://www.w3.org/2000/svg" xmlns:xlink="http://www.w3.org/1999/xlink">
 <defs>
  <style type="text/css">
*{stroke-linecap:butt;stroke-linejoin:round;}
  </style>
 </defs>
 <g id="figure_1">
  <g id="patch_1">
   <path d="
M0 288
L432 288
L432 0
L0 0
z
" style="fill:#ffffff;"/>
  </g>
  <g id="axes_1">
   <g id="patch_2">
    <path d="
M54 252
L388.8 252
L388.8 28.8
L54 28.8
z
" style="fill:#ffffff;"/>
   </g>
   <g id="PolyCollection_1">
    <defs>
     <path d="
M54 -76.295
L54 -76.2355
L58.2923 -57.0403
L62.5846 -56.2963
L66.8769 -55.969
L71.1692 -55.1654
L75.4615 -54.8678
L79.7538 -57.3974
L84.0462 -59.3021
L88.3385 -54.6298
L92.6308 -53.3798
L96.9231 -57.9331
L101.215 -56.7725
L105.508 -59.183
L109.8 -57.9331
L114.092 -57.7248
L118.385 -59.689
L122.677 -57.5462
L126.969 -57.6653
L131.262 -58.5283
L135.554 -60.9091
L139.846 -56.2666
L144.138 -57.9629
L148.431 -59.9568
L152.723 -62.665
L157.015 -64.6886
L161.308 -63.7363
L165.6 -61.415
L169.892 -65.0458
L174.185 -63.9446
L178.477 -66.5933
L182.769 -62.0995
L187.062 -62.1888
L191.354 -66.3552
L195.646 -63.1411
L199.938 -71.4442
L204.231 -71.1763
L208.523 -67.8432
L212.815 -72.6346
L217.108 -72.1286
L221.4 -66.9802
L225.692 -69.8074
L229.985 -77.3664
L234.277 -71.2358
L238.569 -74.1523
L242.862 -69.5693
L247.154 -72.6941
L251.446 -74.4499
L255.738 -76.7117
L260.031 -69.599
L264.323 -79.6579
L268.615 -77.9616
L272.908 -75.9379
L277.2 -70.6406
L281.492 -76.1165
L285.785 -73.319
L290.077 -77.5152
L294.369 -74.3606
L298.662 -74.9558
L302.954 -78.408
L307.246 -74.5094
L311.538 -77.4259
L315.831 -81.8006
L320.123 -80.6102
L324.415 -82.247
L328.708 -78.527
L333 -83.3779
L337.292 -79.6282
L341.585 -81.8602
L345.877 -83.9136
L350.169 -75.6106
L354.462 -79.4198
L358.754 -74.6285
L363.046 -83.5862
L367.338 -83.2589
L371.631 -81.1757
L375.923 -80.8483
L380.215 -80.6102
L384.508 -83.1101
L388.8 -85.0742
L388.8 -102.335
L388.8 -102.335
L384.508 -102.573
L380.215 -100.073
L375.923 -100.788
L371.631 -102.484
L367.338 -97.5437
L363.046 -97.5734
L358.754 -96.1747
L354.462 -96.8592
L350.169 -95.9664
L345.877 -95.9962
L341.585 -95.4902
L337.292 -100.936
L333 -104.388
L328.708 -96.7997
L324.415 -92.0678
L320.123 -94.3594
L315.831 -92.9309
L311.538 -99.0912
L307.246 -94.4486
L302.954 -93.7642
L298.662 -90.4906
L294.369 -95.0736
L290.077 -91.0858
L285.785 -86.9491
L281.492 -90.0442
L277.2 -91.5917
L272.908 -88.9133
L268.615 -85.8778
L264.323 -88.5859
L260.031 -89.1216
L255.738 -88.3181
L251.446 -90.4013
L247.154 -85.967
L242.862 -83.0803
L238.569 -86.473
L234.277 -86.2349
L229.985 -87.4253
L225.692 -84.1517
L221.4 -80.1936
L217.108 -80.521
L212.815 -83.4672
L208.523 -83.4374
L204.231 -82.8422
L199.938 -81.4435
L195.646 -77.3664
L191.354 -74.5094
L187.062 -74.2714
L182.769 -77.3962
L178.477 -80.5805
L174.185 -73.8845
L169.892 -75.6998
L165.6 -75.2832
L161.308 -75.8189
L157.015 -78.6758
L152.723 -74.9261
L148.431 -75.0749
L144.138 -67.6051
L139.846 -67.6944
L135.554 -67.1587
L131.262 -68.8253
L126.969 -70.4026
L122.677 -66.9504
L118.385 -72.9619
L114.092 -63.5578
L109.8 -66.0874
L105.508 -69.1824
L101.215 -63.9744
L96.9231 -67.4563
L92.6308 -63.6768
L88.3385 -65.5814
L84.0462 -67.992
L79.7538 -64.3613
L75.4615 -66.8314
L71.1692 -65.9981
L66.8769 -63.5875
L62.5846 -61.5341
L58.2923 -67.0397
L54 -76.295
z
" id="C0_0_4c47772c16"/>
    </defs>
    <g clip-path="url(#p124b8dd147)">
     <use style="fill:#d62728;fill-opacity:0.2;stroke:#000000;stroke-opacity:0.2;" x="0.0" xlink:href="#C0_0_4c47772c16" y="288.0"/>
    </g>
   </g>
   <g id="PolyCollection_2">
    <defs>
     <path d="
M54 -70.7597
L54 -70.7597
L58.2923 -70.5811
L62.5846 -70.7002
L66.8769 -69.4205
L71.1692 -71.3251
L75.4615 -71.2061
L79.7538 -73.1107
L84.0462 -75.0154
L88.3385 -80.015
L92.6308 -79.152
L96.9231 -79.4794
L101.215 -79.4496
L105.508 -79.2413
L109.8 -82.9018
L114.092 -84.1219
L118.385 -83.8243
L122.677 -82.5446
L126.969 -80.6102
L131.262 -82.5446
L135.554 -80.7293
L139.846 -85.4314
L144.138 -87.2467
L148.431 -87.0086
L152.723 -86.3837
L157.015 -85.223
L161.308 -86.8598
L165.6 -88.943
L169.892 -88.705
L174.185 -90.9072
L178.477 -89.0918
L182.769 -89.5085
L187.062 -90.431
L191.354 -89.687
L195.646 -90.8774
L199.938 -92.0381
L204.231 -91.7702
L208.523 -90.6989
L212.815 -91.056
L217.108 -90.9965
L221.4 -94.9843
L225.692 -95.2224
L229.985 -95.52
L234.277 -95.2819
L238.569 -94.9546
L242.862 -97.7818
L247.154 -97.0378
L251.446 -98.2282
L255.738 -99.2102
L260.031 -101.026
L264.323 -99.9245
L268.615 -98.7638
L272.908 -100.668
L277.2 -103.555
L281.492 -104.567
L285.785 -104.894
L290.077 -104.388
L294.369 -104.746
L298.662 -105.371
L302.954 -106.62
L307.246 -110.965
L311.538 -111.739
L315.831 -112.87
L320.123 -111.144
L324.415 -111.709
L328.708 -111.233
L333 -111.055
L337.292 -114.09
L341.585 -113.644
L345.877 -113.793
L350.169 -116.471
L354.462 -117.78
L358.754 -119.745
L363.046 -119.358
L367.338 -120.221
L371.631 -121.322
L375.923 -121.441
L380.215 -121.054
L384.508 -121.441
L388.8 -123.971
L388.8 -123.971
L388.8 -123.971
L384.508 -124.238
L380.215 -124.506
L375.923 -123.822
L371.631 -124
L367.338 -125.578
L363.046 -125.072
L358.754 -126.054
L354.462 -125.399
L350.169 -125.101
L345.877 -124.506
L341.585 -124.536
L337.292 -124.387
L333 -123.852
L328.708 -123.971
L324.415 -123.256
L320.123 -123.524
L315.831 -122.631
L311.538 -121.084
L307.246 -120.548
L302.954 -120.608
L298.662 -120.072
L294.369 -119.745
L290.077 -119.507
L285.785 -119.417
L281.492 -120.102
L277.2 -121.292
L272.908 -121.024
L268.615 -119.715
L264.323 -119.685
L260.031 -120.251
L255.738 -119.626
L251.446 -119.953
L247.154 -120.31
L242.862 -119.864
L238.569 -120.072
L234.277 -118.673
L229.985 -117.602
L225.692 -118.376
L221.4 -116.292
L217.108 -116.054
L212.815 -116.054
L208.523 -112.781
L204.231 -112.9
L199.938 -112.93
L195.646 -114.566
L191.354 -113.376
L187.062 -114.537
L182.769 -114.804
L178.477 -113.971
L174.185 -114.239
L169.892 -115.072
L165.6 -116.084
L161.308 -116.56
L157.015 -115.519
L152.723 -113.584
L148.431 -113.495
L144.138 -112.186
L139.846 -111.204
L135.554 -107.692
L131.262 -104.746
L126.969 -101.323
L122.677 -99.8054
L118.385 -99.8352
L114.092 -97.3354
L109.8 -96.1747
L105.508 -96.5021
L101.215 -96.9485
L96.9231 -96.6211
L92.6308 -94.9248
L88.3385 -93.169
L84.0462 -89.4192
L79.7538 -87.8717
L75.4615 -86.2646
L71.1692 -84.4195
L66.8769 -85.0147
L62.5846 -81.3542
L58.2923 -80.2234
L54 -70.7597
z
" id="C1_0_226e3cb410"/>
    </defs>
    <g clip-path="url(#p124b8dd147)">
     <use style="fill:#2ca02c;fill-opacity:0.2;stroke:#000000;stroke-opacity:0.2;" x="0.0" xlink:href="#C1_0_226e3cb410" y="288.0"/>
    </g>
   </g>
   <g id="PolyCollection_3">
    <defs>
     <path d="
M54 -76.2653
L54 -76.2058
L58.2923 -75.0451
L62.5846 -78.8246
L66.8769 -85.6992
L71.1692 -98.7043
L75.4615 -101.204
L79.7538 -104.091
L84.0462 -103.198
L88.3385 -116.173
L92.6308 -122.512
L96.9231 -124.834
L101.215 -126.619
L105.508 -128.464
L109.8 -125.726
L114.092 -130.19
L118.385 -132.393
L122.677 -137.035
L126.969 -140.13
L131.262 -147.362
L135.554 -150.011
L139.846 -154.415
L144.138 -157.956
L148.431 -162.688
L152.723 -160.605
L157.015 -165.01
L161.308 -166.914
L165.6 -169.325
L169.892 -176.467
L174.185 -177.36
L178.477 -178.55
L182.769 -179.324
L187.062 -176.556
L191.354 -188.193
L195.646 -190.454
L199.938 -193.044
L204.231 -193.252
L208.523 -194.085
L212.815 -192.686
L217.108 -195.156
L221.4 -193.222
L225.692 -196.406
L229.985 -197.984
L234.277 -197.627
L238.569 -199.442
L242.862 -200.424
L247.154 -202.775
L251.446 -204.888
L255.738 -202.537
L260.031 -207.566
L264.323 -207.001
L268.615 -204.055
L272.908 -207.834
L277.2 -209.173
L281.492 -209.173
L285.785 -206.852
L290.077 -209.798
L294.369 -210.691
L298.662 -212.626
L302.954 -212.983
L307.246 -214.768
L311.538 -216.316
L315.831 -215.125
L320.123 -217.268
L324.415 -215.274
L328.708 -216.405
L333 -213.637
L337.292 -217.953
L341.585 -218.012
L345.877 -218.34
L350.169 -223.726
L354.462 -222.833
L358.754 -226.881
L363.046 -224.768
L367.338 -225.274
L371.631 -225.809
L375.923 -227.744
L380.215 -229.321
L384.508 -223.548
L388.8 -224.232
L388.8 -229.47
L388.8 -229.47
L384.508 -230.988
L380.215 -233.309
L375.923 -230.065
L371.631 -228.488
L367.338 -228.547
L363.046 -230.72
L358.754 -232.952
L354.462 -226.226
L350.169 -228.607
L345.877 -226.732
L341.585 -225.095
L337.292 -226.643
L333 -226.553
L328.708 -225.809
L324.415 -221.94
L320.123 -224.708
L315.831 -222.565
L311.538 -223.458
L307.246 -220.006
L302.954 -220.542
L298.662 -220.066
L294.369 -217.238
L290.077 -216.643
L285.785 -216.078
L281.492 -214.292
L277.2 -217.09
L272.908 -213.191
L268.615 -212.209
L264.323 -213.608
L260.031 -212.685
L255.738 -211.048
L251.446 -208.281
L247.154 -211.465
L242.862 -211.554
L238.569 -211.286
L234.277 -211.257
L229.985 -209.412
L225.692 -204.144
L221.4 -208.4
L217.108 -209.56
L212.815 -205.067
L208.523 -204.144
L204.231 -203.668
L199.938 -201.555
L195.646 -201.347
L191.354 -201.466
L187.062 -197.924
L182.769 -198.787
L178.477 -194.204
L174.185 -189.026
L169.892 -188.133
L165.6 -189.8
L161.308 -189.472
L157.015 -188.699
L152.723 -187.568
L148.431 -186.377
L144.138 -182.776
L139.846 -180.604
L135.554 -175.068
L131.262 -173.015
L126.969 -170.069
L122.677 -168.343
L118.385 -167.212
L114.092 -161.915
L109.8 -160.546
L105.508 -149.594
L101.215 -146.082
L96.9231 -140.487
L92.6308 -136.321
L88.3385 -136.41
L84.0462 -129.268
L79.7538 -124.863
L75.4615 -121.441
L71.1692 -110.489
L66.8769 -110.936
L62.5846 -105.371
L58.2923 -93.2582
L54 -76.2653
z
" id="C2_0_3c59451bf9"/>
    </defs>
    <g clip-path="url(#p124b8dd147)">
     <use style="fill:#1f77b4;fill-opacity:0.2;stroke:#000000;stroke-opacity:0.2;" x="0.0" xlink:href="#C2_0_3c59451bf9" y="288.0"/>
    </g>
   </g>
   <g id="line2d_1">
    <path clip-path="url(#p124b8dd147)" d="
M54 211.735
L58.2923 225.96
L62.5846 229.085
L66.8769 228.222
L71.1692 227.418
L75.4615 227.15
L79.7538 227.121
L84.0462 224.353
L88.3385 227.894
L92.6308 229.472
L96.9231 225.305
L101.215 227.627
L105.508 223.817
L109.8 225.99
L114.092 227.359
L118.385 221.675
L122.677 225.752
L126.969 223.966
L131.262 224.323
L135.554 223.966
L139.846 226.02
L144.138 225.216
L148.431 220.484
L152.723 219.204
L157.015 216.318
L161.308 218.222
L165.6 219.651
L169.892 217.627
L174.185 219.085
L178.477 214.413
L182.769 218.252
L187.062 219.77
L191.354 217.568
L195.646 217.746
L199.938 211.556
L204.231 210.991
L208.523 212.36
L212.815 209.949
L217.108 211.675
L221.4 214.413
L225.692 211.02
L229.985 205.604
L234.277 209.265
L238.569 207.687
L242.862 211.675
L247.154 208.669
L251.446 205.574
L255.738 205.485
L260.031 208.64
L264.323 203.878
L268.615 206.08
L272.908 205.574
L277.2 206.884
L281.492 204.92
L285.785 207.866
L290.077 203.7
L294.369 203.283
L298.662 205.277
L302.954 201.914
L307.246 203.521
L311.538 199.741
L315.831 200.634
L320.123 200.515
L324.415 200.843
L328.708 200.337
L333 194.117
L337.292 197.718
L341.585 199.325
L345.877 198.045
L350.169 202.212
L354.462 199.86
L358.754 202.598
L363.046 197.42
L367.338 197.599
L371.631 196.17
L375.923 197.182
L380.215 197.658
L384.508 195.158
L388.8 194.295" style="fill:none;stroke:#d62728;stroke-linecap:square;stroke-width:1.5;"/>
   </g>
   <g id="line2d_2">
    <path clip-path="url(#p124b8dd147)" d="
M54 217.24
L58.2923 212.598
L62.5846 211.973
L66.8769 210.782
L71.1692 210.128
L75.4615 209.265
L79.7538 207.509
L84.0462 205.783
L88.3385 201.408
L92.6308 200.962
L96.9231 199.95
L101.215 199.801
L105.508 200.128
L109.8 198.462
L114.092 197.271
L118.385 196.17
L122.677 196.825
L126.969 197.033
L131.262 194.355
L135.554 193.789
L139.846 189.683
L144.138 188.284
L148.431 187.748
L152.723 188.016
L157.015 187.629
L161.308 186.29
L165.6 185.486
L169.892 186.111
L174.185 185.427
L178.477 186.468
L182.769 185.844
L187.062 185.516
L191.354 186.468
L195.646 185.278
L199.938 185.516
L204.231 185.665
L208.523 186.26
L212.815 184.445
L217.108 184.475
L221.4 182.362
L225.692 181.201
L229.985 181.439
L234.277 181.022
L238.569 180.487
L242.862 179.177
L247.154 179.326
L251.446 178.909
L255.738 178.582
L260.031 177.362
L264.323 178.195
L268.615 178.761
L272.908 177.154
L277.2 175.576
L281.492 175.666
L285.785 175.844
L290.077 176.052
L294.369 175.755
L298.662 175.279
L302.954 174.386
L307.246 172.243
L311.538 171.588
L315.831 170.249
L320.123 170.666
L324.415 170.517
L328.708 170.398
L333 170.547
L337.292 168.761
L341.585 168.91
L345.877 168.851
L350.169 167.214
L354.462 166.41
L358.754 165.101
L363.046 165.785
L367.338 165.101
L371.631 165.339
L375.923 165.369
L380.215 165.22
L384.508 165.16
L388.8 164.029" style="fill:none;stroke:#2ca02c;stroke-linecap:square;stroke-width:1.5;"/>
   </g>
   <g id="line2d_3">
    <path clip-path="url(#p124b8dd147)" d="
M54 211.764
L58.2923 203.848
L62.5846 195.902
L66.8769 189.683
L71.1692 183.403
L75.4615 176.677
L79.7538 173.523
L84.0462 171.767
L88.3385 161.708
L92.6308 158.583
L96.9231 155.34
L101.215 151.649
L105.508 148.971
L109.8 144.864
L114.092 141.948
L118.385 138.198
L122.677 135.311
L126.969 132.9
L131.262 127.812
L135.554 125.46
L139.846 120.491
L144.138 117.634
L148.431 113.467
L152.723 113.914
L157.015 111.146
L161.308 109.807
L165.6 108.438
L169.892 105.7
L174.185 104.807
L178.477 101.623
L182.769 98.9443
L187.062 100.76
L191.354 93.1709
L195.646 92.0995
L199.938 90.7008
L204.231 89.5402
L208.523 88.8854
L212.815 89.1235
L217.108 85.6416
L221.4 87.1891
L225.692 87.7248
L229.985 84.3024
L234.277 83.5584
L238.569 82.6358
L242.862 82.0109
L247.154 80.88
L251.446 81.4157
L255.738 81.2074
L260.031 77.8742
L264.323 77.6957
L268.615 79.8682
L272.908 77.4874
L277.2 74.8685
L281.492 76.2672
L285.785 76.535
L290.077 74.7792
L294.369 74.0352
L298.662 71.6544
L302.954 71.2378
L307.246 70.6128
L311.538 68.113
L315.831 69.1546
L320.123 67.0118
L324.415 69.3926
L328.708 66.8928
L333 67.9046
L337.292 65.7024
L341.585 66.4464
L345.877 65.4643
L350.169 61.8336
L354.462 63.4704
L358.754 58.0838
L363.046 60.2563
L367.338 61.0896
L371.631 60.8515
L375.923 59.0957
L380.215 56.6851
L384.508 60.7325
L388.8 61.1491" style="fill:none;stroke:#1f77b4;stroke-linecap:square;stroke-width:1.5;"/>
   </g>
   <g id="matplotlib.axis_1">
    <g id="xtick_1">
     <g id="line2d_4">
      <path clip-path="url(#p124b8dd147)" d="
M92.6308 252
L92.6308 28.8" style="fill:none;stroke:#a6a6a6;stroke-dasharray:1.000000,3.000000;stroke-dashoffset:0.0;stroke-width:0.5;"/>
     </g>
     <g id="line2d_5">
      <defs>
       <path d="
M0 0
L0 -4" id="m93b0483c22" style="stroke:#000000;stroke-width:0.5;"/>
      </defs>
      <g>
       <use style="stroke:#000000;stroke-width:0.5;" x="92.6307692308" xlink:href="#m93b0483c22" y="252.0"/>
      </g>
     </g>
     <g id="line2d_6">
      <defs>
       <path d="
M0 0
L0 4" id="m741efc42ff" style="stroke:#000000;stroke-width:0.5;"/>
      </defs>
      <g>
       <use style="stroke:#000000;stroke-width:0.5;" x="92.6307692308" xlink:href="#m741efc42ff" y="28.8"/>
      </g>
     </g>
     <g id="text_1">
      <!-- 10 -->
      <defs>
       <path d="
M12.4062 8.29688
L28.5156 8.29688
L28.5156 63.9219
L10.9844 60.4062
L10.9844 69.3906
L28.4219 72.9062
L38.2812 72.9062
L38.2812 8.29688
L54.3906 8.29688
L54.3906 0
L12.4062 0
z
" id="DejaVuSans-31"/>
       <path d="
M31.7812 66.4062
Q24.1719 66.4062 20.3281 58.9062
Q16.5 51.4219 16.5 36.375
Q16.5 21.3906 20.3281 13.8906
Q24.1719 6.39062 31.7812 6.39062
Q39.4531 6.39062 43.2812 13.8906
Q47.125 21.3906 47.125 36.375
Q47.125 51.4219 43.2812 58.9062
Q39.4531 66.4062 31.7812 66.4062
M31.7812 74.2188
Q44.0469 74.2188 50.5156 64.5156
Q56.9844 54.8281 56.9844 36.375
Q56.9844 17.9688 50.5156 8.26562
Q44.0469 -1.42188 31.7812 -1.42188
Q19.5312 -1.42188 13.0625 8.26562
Q6.59375 17.9688 6.59375 36.375
Q6.59375 54.8281 13.0625 64.5156
Q19.5312 74.2188 31.7812 74.2188" id="DejaVuSans-30"/>
      </defs>
      <g transform="translate(87.1495192308 263.5984375)scale(0.1 -0.1)">
       <use xlink:href="#DejaVuSans-31"/>
       <use x="63.623046875" xlink:href="#DejaVuSans-30"/>
      </g>
     </g>
    </g>
    <g id="xtick_2">
     <g id="line2d_7">
      <path clip-path="url(#p124b8dd147)" d="
M135.554 252
L135.554 28.8" style="fill:none;stroke:#a6a6a6;stroke-dasharray:1.000000,3.000000;stroke-dashoffset:0.0;stroke-width:0.5;"/>
     </g>
     <g id="line2d_8">
      <g>
       <use style="stroke:#000000;stroke-width:0.5;" x="135.553846154" xlink:href="#m93b0483c22" y="252.0"/>
      </g>
     </g>
     <g id="line2d_9">
      <g>
       <use style="stroke:#000000;stroke-width:0.5;" x="135.553846154" xlink:href="#m741efc42ff" y="28.8"/>
      </g>
     </g>
     <g id="text_2">
      <!-- 20 -->
      <defs>
       <path d="
M19.1875 8.29688
L53.6094 8.29688
L53.6094 0
L7.32812 0
L7.32812 8.29688
Q12.9375 14.1094 22.625 23.8906
Q32.3281 33.6875 34.8125 36.5312
Q39.5469 41.8438 41.4219 45.5312
Q43.3125 49.2188 43.3125 52.7812
Q43.3125 58.5938 39.2344 62.25
Q35.1562 65.9219 28.6094 65.9219
Q23.9688 65.9219 18.8125 64.3125
Q13.6719 62.7031 7.8125 59.4219
L7.8125 69.3906
Q13.7656 71.7812 18.9375 73
Q24.125 74.2188 28.4219 74.2188
Q39.75 74.2188 46.4844 68.5469
Q53.2188 62.8906 53.2188 53.4219
Q53.2188 48.9219 51.5312 44.8906
Q49.8594 40.875 45.4062 35.4062
Q44.1875 33.9844 37.6406 27.2188
Q31.1094 20.4531 19.1875 8.29688" id="DejaVuSans-32"/>
      </defs>
      <g transform="translate(129.889783654 263.5984375)scale(0.1 -0.1)">
       <use xlink:href="#DejaVuSans-32"/>
       <use x="63.623046875" xlink:href="#DejaVuSans-30"/>
      </g>
     </g>
    </g>
    <g id="xtick_3">
     <g id="line2d_10">
      <path clip-path="url(#p124b8dd147)" d="
M178.477 252
L178.477 28.8" style="fill:none;stroke:#a6a6a6;stroke-dasharray:1.000000,3.000000;stroke-dashoffset:0.0;stroke-width:0.5;"/>
     </g>
     <g id="line2d_11">
      <g>
       <use style="stroke:#000000;stroke-width:0.5;" x="178.476923077" xlink:href="#m93b0483c22" y="252.0"/>
      </g>
     </g>
     <g id="line2d_12">
      <g>
       <use style="stroke:#000000;stroke-width:0.5;" x="178.476923077" xlink:href="#m741efc42ff" y="28.8"/>
      </g>
     </g>
     <g id="text_3">
      <!-- 30 -->
      <defs>
       <path d="
M40.5781 39.3125
Q47.6562 37.7969 51.625 33
Q55.6094 28.2188 55.6094 21.1875
Q55.6094 10.4062 48.1875 4.48438
Q40.7656 -1.42188 27.0938 -1.42188
Q22.5156 -1.42188 17.6562 -0.515625
Q12.7969 0.390625 7.625 2.20312
L7.625 11.7188
Q11.7188 9.32812 16.5938 8.10938
Q21.4844 6.89062 26.8125 6.89062
Q36.0781 6.89062 40.9375 10.5469
Q45.7969 14.2031 45.7969 21.1875
Q45.7969 27.6406 41.2812 31.2656
Q36.7656 34.9062 28.7188 34.9062
L20.2188 34.9062
L20.2188 43.0156
L29.1094 43.0156
Q36.375 43.0156 40.2344 45.9219
Q44.0938 48.8281 44.0938 54.2969
Q44.0938 59.9062 40.1094 62.9062
Q36.1406 65.9219 28.7188 65.9219
Q24.6562 65.9219 20.0156 65.0312
Q15.375 64.1562 9.8125 62.3125
L9.8125 71.0938
Q15.4375 72.6562 20.3438 73.4375
Q25.25 74.2188 29.5938 74.2188
Q40.8281 74.2188 47.3594 69.1094
Q53.9062 64.0156 53.9062 55.3281
Q53.9062 49.2656 50.4375 45.0938
Q46.9688 40.9219 40.5781 39.3125" id="DejaVuSans-33"/>
      </defs>
      <g transform="translate(172.827704327 263.5984375)scale(0.1 -0.1)">
       <use xlink:href="#DejaVuSans-33"/>
       <use x="63.623046875" xlink:href="#DejaVuSans-30"/>
      </g>
     </g>
    </g>
    <g id="xtick_4">
     <g id="line2d_13">
      <path clip-path="url(#p124b8dd147)" d="
M221.4 252
L221.4 28.8" style="fill:none;stroke:#a6a6a6;stroke-dasharray:1.000000,3.000000;stroke-dashoffset:0.0;stroke-width:0.5;"/>
     </g>
     <g id="line2d_14">
      <g>
       <use style="stroke:#000000;stroke-width:0.5;" x="221.4" xlink:href="#m93b0483c22" y="252.0"/>
      </g>
     </g>
     <g id="line2d_15">
      <g>
       <use style="stroke:#000000;stroke-width:0.5;" x="221.4" xlink:href="#m741efc42ff" y="28.8"/>
      </g>
     </g>
     <g id="text_4">
      <!-- 40 -->
      <defs>
       <path d="
M37.7969 64.3125
L12.8906 25.3906
L37.7969 25.3906
z

M35.2031 72.9062
L47.6094 72.9062
L47.6094 25.3906
L58.0156 25.3906
L58.0156 17.1875
L47.6094 17.1875
L47.6094 0
L37.7969 0
L37.7969 17.1875
L4.89062 17.1875
L4.89062 26.7031
z
" id="DejaVuSans-34"/>
      </defs>
      <g transform="translate(215.6140625 263.5984375)scale(0.1 -0.1)">
       <use xlink:href="#DejaVuSans-34"/>
       <use x="63.623046875" xlink:href="#DejaVuSans-30"/>
      </g>
     </g>
    </g>
    <g id="xtick_5">
     <g id="line2d_16">
      <path clip-path="url(#p124b8dd147)" d="
M264.323 252
L264.323 28.8" style="fill:none;stroke:#a6a6a6;stroke-dasharray:1.000000,3.000000;stroke-dashoffset:0.0;stroke-width:0.5;"/>
     </g>
     <g id="line2d_17">
      <g>
       <use style="stroke:#000000;stroke-width:0.5;" x="264.323076923" xlink:href="#m93b0483c22" y="252.0"/>
      </g>
     </g>
     <g id="line2d_18">
      <g>
       <use style="stroke:#000000;stroke-width:0.5;" x="264.323076923" xlink:href="#m741efc42ff" y="28.8"/>
      </g>
     </g>
     <g id="text_5">
      <!-- 50 -->
      <defs>
       <path d="
M10.7969 72.9062
L49.5156 72.9062
L49.5156 64.5938
L19.8281 64.5938
L19.8281 46.7344
Q21.9688 47.4688 24.1094 47.8281
Q26.2656 48.1875 28.4219 48.1875
Q40.625 48.1875 47.75 41.5
Q54.8906 34.8125 54.8906 23.3906
Q54.8906 11.625 47.5625 5.09375
Q40.2344 -1.42188 26.9062 -1.42188
Q22.3125 -1.42188 17.5469 -0.640625
Q12.7969 0.140625 7.71875 1.70312
L7.71875 11.625
Q12.1094 9.23438 16.7969 8.0625
Q21.4844 6.89062 26.7031 6.89062
Q35.1562 6.89062 40.0781 11.3281
Q45.0156 15.7656 45.0156 23.3906
Q45.0156 31 40.0781 35.4375
Q35.1562 39.8906 26.7031 39.8906
Q22.75 39.8906 18.8125 39.0156
Q14.8906 38.1406 10.7969 36.2812
z
" id="DejaVuSans-35"/>
      </defs>
      <g transform="translate(258.678545673 263.5984375)scale(0.1 -0.1)">
       <use xlink:href="#DejaVuSans-35"/>
       <use x="63.623046875" xlink:href="#DejaVuSans-30"/>
      </g>
     </g>
    </g>
    <g id="xtick_6">
     <g id="line2d_19">
      <path clip-path="url(#p124b8dd147)" d="
M307.246 252
L307.246 28.8" style="fill:none;stroke:#a6a6a6;stroke-dasharray:1.000000,3.000000;stroke-dashoffset:0.0;stroke-width:0.5;"/>
     </g>
     <g id="line2d_20">
      <g>
       <use style="stroke:#000000;stroke-width:0.5;" x="307.246153846" xlink:href="#m93b0483c22" y="252.0"/>
      </g>
     </g>
     <g id="line2d_21">
      <g>
       <use style="stroke:#000000;stroke-width:0.5;" x="307.246153846" xlink:href="#m741efc42ff" y="28.8"/>
      </g>
     </g>
     <g id="text_6">
      <!-- 60 -->
      <defs>
       <path d="
M33.0156 40.375
Q26.375 40.375 22.4844 35.8281
Q18.6094 31.2969 18.6094 23.3906
Q18.6094 15.5312 22.4844 10.9531
Q26.375 6.39062 33.0156 6.39062
Q39.6562 6.39062 43.5312 10.9531
Q47.4062 15.5312 47.4062 23.3906
Q47.4062 31.2969 43.5312 35.8281
Q39.6562 40.375 33.0156 40.375
M52.5938 71.2969
L52.5938 62.3125
Q48.875 64.0625 45.0938 64.9844
Q41.3125 65.9219 37.5938 65.9219
Q27.8281 65.9219 22.6719 59.3281
Q17.5312 52.7344 16.7969 39.4062
Q19.6719 43.6562 24.0156 45.9219
Q28.375 48.1875 33.5938 48.1875
Q44.5781 48.1875 50.9531 41.5156
Q57.3281 34.8594 57.3281 23.3906
Q57.3281 12.1562 50.6875 5.35938
Q44.0469 -1.42188 33.0156 -1.42188
Q20.3594 -1.42188 13.6719 8.26562
Q6.98438 17.9688 6.98438 36.375
Q6.98438 53.6562 15.1875 63.9375
Q23.3906 74.2188 37.2031 74.2188
Q40.9219 74.2188 44.7031 73.4844
Q48.4844 72.75 52.5938 71.2969" id="DejaVuSans-36"/>
      </defs>
      <g transform="translate(301.564903846 263.5984375)scale(0.1 -0.1)">
       <use xlink:href="#DejaVuSans-36"/>
       <use x="63.623046875" xlink:href="#DejaVuSans-30"/>
      </g>
     </g>
    </g>
    <g id="xtick_7">
     <g id="line2d_22">
      <path clip-path="url(#p124b8dd147)" d="
M350.169 252
L350.169 28.8" style="fill:none;stroke:#a6a6a6;stroke-dasharray:1.000000,3.000000;stroke-dashoffset:0.0;stroke-width:0.5;"/>
     </g>
     <g id="line2d_23">
      <g>
       <use style="stroke:#000000;stroke-width:0.5;" x="350.169230769" xlink:href="#m93b0483c22" y="252.0"/>
      </g>
     </g>
     <g id="line2d_24">
      <g>
       <use style="stroke:#000000;stroke-width:0.5;" x="350.169230769" xlink:href="#m741efc42ff" y="28.8"/>
      </g>
     </g>
     <g id="text_7">
      <!-- 70 -->
      <defs>
       <path d="
M8.20312 72.9062
L55.0781 72.9062
L55.0781 68.7031
L28.6094 0
L18.3125 0
L43.2188 64.5938
L8.20312 64.5938
z
" id="DejaVuSans-37"/>
      </defs>
      <g transform="translate(344.548918269 263.5984375)scale(0.1 -0.1)">
       <use xlink:href="#DejaVuSans-37"/>
       <use x="63.623046875" xlink:href="#DejaVuSans-30"/>
      </g>
     </g>
    </g>
    <g id="text_8">
     <!-- Encountered Batches -->
     <defs>
      <path d="
M54.8906 33.0156
L54.8906 0
L45.9062 0
L45.9062 32.7188
Q45.9062 40.4844 42.875 44.3281
Q39.8438 48.1875 33.7969 48.1875
Q26.5156 48.1875 22.3125 43.5469
Q18.1094 38.9219 18.1094 30.9062
L18.1094 0
L9.07812 0
L9.07812 75.9844
L18.1094 75.9844
L18.1094 46.1875
Q21.3438 51.125 25.7031 53.5625
Q30.0781 56 35.7969 56
Q45.2188 56 50.0469 50.1719
Q54.8906 44.3438 54.8906 33.0156" id="DejaVuSans-68"/>
      <path d="
M30.6094 48.3906
Q23.3906 48.3906 19.1875 42.75
Q14.9844 37.1094 14.9844 27.2969
Q14.9844 17.4844 19.1562 11.8438
Q23.3438 6.20312 30.6094 6.20312
Q37.7969 6.20312 41.9844 11.8594
Q46.1875 17.5312 46.1875 27.2969
Q46.1875 37.0156 41.9844 42.7031
Q37.7969 48.3906 30.6094 48.3906
M30.6094 56
Q42.3281 56 49.0156 48.375
Q55.7188 40.7656 55.7188 27.2969
Q55.7188 13.875 49.0156 6.21875
Q42.3281 -1.42188 30.6094 -1.42188
Q18.8438 -1.42188 12.1719 6.21875
Q5.51562 13.875 5.51562 27.2969
Q5.51562 40.7656 12.1719 48.375
Q18.8438 56 30.6094 56" id="DejaVuSans-6f"/>
      <path d="
M54.8906 33.0156
L54.8906 0
L45.9062 0
L45.9062 32.7188
Q45.9062 40.4844 42.875 44.3281
Q39.8438 48.1875 33.7969 48.1875
Q26.5156 48.1875 22.3125 43.5469
Q18.1094 38.9219 18.1094 30.9062
L18.1094 0
L9.07812 0
L9.07812 54.6875
L18.1094 54.6875
L18.1094 46.1875
Q21.3438 51.125 25.7031 53.5625
Q30.0781 56 35.7969 56
Q45.2188 56 50.0469 50.1719
Q54.8906 44.3438 54.8906 33.0156" id="DejaVuSans-6e"/>
      <path d="
M34.2812 27.4844
Q23.3906 27.4844 19.1875 25
Q14.9844 22.5156 14.9844 16.5
Q14.9844 11.7188 18.1406 8.90625
Q21.2969 6.10938 26.7031 6.10938
Q34.1875 6.10938 38.7031 11.4062
Q43.2188 16.7031 43.2188 25.4844
L43.2188 27.4844
z

M52.2031 31.2031
L52.2031 0
L43.2188 0
L43.2188 8.29688
Q40.1406 3.32812 35.5469 0.953125
Q30.9531 -1.42188 24.3125 -1.42188
Q15.9219 -1.42188 10.9531 3.29688
Q6 8.01562 6 15.9219
Q6 25.1406 12.1719 29.8281
Q18.3594 34.5156 30.6094 34.5156
L43.2188 34.5156
L43.2188 35.4062
Q43.2188 41.6094 39.1406 45
Q35.0625 48.3906 27.6875 48.3906
Q23 48.3906 18.5469 47.2656
Q14.1094 46.1406 10.0156 43.8906
L10.0156 52.2031
Q14.9375 54.1094 19.5781 55.0469
Q24.2188 56 28.6094 56
Q40.4844 56 46.3438 49.8438
Q52.2031 43.7031 52.2031 31.2031" id="DejaVuSans-61"/>
      <path d="
M9.8125 72.9062
L55.9062 72.9062
L55.9062 64.5938
L19.6719 64.5938
L19.6719 43.0156
L54.3906 43.0156
L54.3906 34.7188
L19.6719 34.7188
L19.6719 8.29688
L56.7812 8.29688
L56.7812 0
L9.8125 0
z
" id="DejaVuSans-45"/>
      <path id="DejaVuSans-20"/>
      <path d="
M19.6719 34.8125
L19.6719 8.10938
L35.5 8.10938
Q43.4531 8.10938 47.2812 11.4062
Q51.125 14.7031 51.125 21.4844
Q51.125 28.3281 47.2812 31.5625
Q43.4531 34.8125 35.5 34.8125
z

M19.6719 64.7969
L19.6719 42.8281
L34.2812 42.8281
Q41.5 42.8281 45.0312 45.5312
Q48.5781 48.25 48.5781 53.8125
Q48.5781 59.3281 45.0312 62.0625
Q41.5 64.7969 34.2812 64.7969
z

M9.8125 72.9062
L35.0156 72.9062
Q46.2969 72.9062 52.3906 68.2188
Q58.5 63.5312 58.5 54.8906
Q58.5 48.1875 55.375 44.2344
Q52.25 40.2812 46.1875 39.3125
Q53.4688 37.75 57.5 32.7812
Q61.5312 27.8281 61.5312 20.4062
Q61.5312 10.6406 54.8906 5.3125
Q48.25 0 35.9844 0
L9.8125 0
z
" id="DejaVuSans-42"/>
      <path d="
M8.5 21.5781
L8.5 54.6875
L17.4844 54.6875
L17.4844 21.9219
Q17.4844 14.1562 20.5 10.2656
Q23.5312 6.39062 29.5938 6.39062
Q36.8594 6.39062 41.0781 11.0312
Q45.3125 15.6719 45.3125 23.6875
L45.3125 54.6875
L54.2969 54.6875
L54.2969 0
L45.3125 0
L45.3125 8.40625
Q42.0469 3.42188 37.7188 1
Q33.4062 -1.42188 27.6875 -1.42188
Q18.2656 -1.42188 13.375 4.4375
Q8.5 10.2969 8.5 21.5781
M31.1094 56
z
" id="DejaVuSans-75"/>
      <path d="
M18.3125 70.2188
L18.3125 54.6875
L36.8125 54.6875
L36.8125 47.7031
L18.3125 47.7031
L18.3125 18.0156
Q18.3125 11.3281 20.1406 9.42188
Q21.9688 7.51562 27.5938 7.51562
L36.8125 7.51562
L36.8125 0
L27.5938 0
Q17.1875 0 13.2344 3.875
Q9.28125 7.76562 9.28125 18.0156
L9.28125 47.7031
L2.6875 47.7031
L2.6875 54.6875
L9.28125 54.6875
L9.28125 70.2188
z
" id="DejaVuSans-74"/>
      <path d="
M45.4062 46.3906
L45.4062 75.9844
L54.3906 75.9844
L54.3906 0
L45.4062 0
L45.4062 8.20312
Q42.5781 3.32812 38.25 0.953125
Q33.9375 -1.42188 27.875 -1.42188
Q17.9688 -1.42188 11.7344 6.48438
Q5.51562 14.4062 5.51562 27.2969
Q5.51562 40.1875 11.7344 48.0938
Q17.9688 56 27.875 56
Q33.9375 56 38.25 53.625
Q42.5781 51.2656 45.4062 46.3906
M14.7969 27.2969
Q14.7969 17.3906 18.875 11.75
Q22.9531 6.10938 30.0781 6.10938
Q37.2031 6.10938 41.2969 11.75
Q45.4062 17.3906 45.4062 27.2969
Q45.4062 37.2031 41.2969 42.8438
Q37.2031 48.4844 30.0781 48.4844
Q22.9531 48.4844 18.875 42.8438
Q14.7969 37.2031 14.7969 27.2969" id="DejaVuSans-64"/>
      <path d="
M56.2031 29.5938
L56.2031 25.2031
L14.8906 25.2031
Q15.4844 15.9219 20.4844 11.0625
Q25.4844 6.20312 34.4219 6.20312
Q39.5938 6.20312 44.4531 7.46875
Q49.3125 8.73438 54.1094 11.2812
L54.1094 2.78125
Q49.2656 0.734375 44.1875 -0.34375
Q39.1094 -1.42188 33.8906 -1.42188
Q20.7969 -1.42188 13.1562 6.1875
Q5.51562 13.8125 5.51562 26.8125
Q5.51562 40.2344 12.7656 48.1094
Q20.0156 56 32.3281 56
Q43.3594 56 49.7812 48.8906
Q56.2031 41.7969 56.2031 29.5938
M47.2188 32.2344
Q47.125 39.5938 43.0938 43.9844
Q39.0625 48.3906 32.4219 48.3906
Q24.9062 48.3906 20.3906 44.1406
Q15.875 39.8906 15.1875 32.1719
z
" id="DejaVuSans-65"/>
      <path d="
M48.7812 52.5938
L48.7812 44.1875
Q44.9688 46.2969 41.1406 47.3438
Q37.3125 48.3906 33.4062 48.3906
Q24.6562 48.3906 19.8125 42.8438
Q14.9844 37.3125 14.9844 27.2969
Q14.9844 17.2812 19.8125 11.7344
Q24.6562 6.20312 33.4062 6.20312
Q37.3125 6.20312 41.1406 7.25
Q44.9688 8.29688 48.7812 10.4062
L48.7812 2.09375
Q45.0156 0.34375 40.9844 -0.53125
Q36.9688 -1.42188 32.4219 -1.42188
Q20.0625 -1.42188 12.7812 6.34375
Q5.51562 14.1094 5.51562 27.2969
Q5.51562 40.6719 12.8594 48.3281
Q20.2188 56 33.0156 56
Q37.1562 56 41.1094 55.1406
Q45.0625 54.2969 48.7812 52.5938" id="DejaVuSans-63"/>
      <path d="
M44.2812 53.0781
L44.2812 44.5781
Q40.4844 46.5312 36.375 47.5
Q32.2812 48.4844 27.875 48.4844
Q21.1875 48.4844 17.8438 46.4375
Q14.5 44.3906 14.5 40.2812
Q14.5 37.1562 16.8906 35.375
Q19.2812 33.5938 26.5156 31.9844
L29.5938 31.2969
Q39.1562 29.25 43.1875 25.5156
Q47.2188 21.7812 47.2188 15.0938
Q47.2188 7.46875 41.1875 3.01562
Q35.1562 -1.42188 24.6094 -1.42188
Q20.2188 -1.42188 15.4531 -0.5625
Q10.6875 0.296875 5.42188 2
L5.42188 11.2812
Q10.4062 8.6875 15.2344 7.39062
Q20.0625 6.10938 24.8125 6.10938
Q31.1562 6.10938 34.5625 8.28125
Q37.9844 10.4531 37.9844 14.4062
Q37.9844 18.0625 35.5156 20.0156
Q33.0625 21.9688 24.7031 23.7812
L21.5781 24.5156
Q13.2344 26.2656 9.51562 29.9062
Q5.8125 33.5469 5.8125 39.8906
Q5.8125 47.6094 11.2812 51.7969
Q16.75 56 26.8125 56
Q31.7812 56 36.1719 55.2656
Q40.5781 54.5469 44.2812 53.0781" id="DejaVuSans-73"/>
      <path d="
M41.1094 46.2969
Q39.5938 47.1719 37.8125 47.5781
Q36.0312 48 33.8906 48
Q26.2656 48 22.1875 43.0469
Q18.1094 38.0938 18.1094 28.8125
L18.1094 0
L9.07812 0
L9.07812 54.6875
L18.1094 54.6875
L18.1094 46.1875
Q20.9531 51.1719 25.4844 53.5781
Q30.0312 56 36.5312 56
Q37.4531 56 38.5781 55.875
Q39.7031 55.7656 41.0625 55.5156
z
" id="DejaVuSans-72"/>
     </defs>
     <g transform="translate(168.29609375 278.2765625)scale(0.1 -0.1)">
      <use xlink:href="#DejaVuSans-45"/>
      <use x="63.18359375" xlink:href="#DejaVuSans-6e"/>
      <use x="126.5625" xlink:href="#DejaVuSans-63"/>
      <use x="181.54296875" xlink:href="#DejaVuSans-6f"/>
      <use x="242.724609375" xlink:href="#DejaVuSans-75"/>
      <use x="306.103515625" xlink:href="#DejaVuSans-6e"/>
      <use x="369.482421875" xlink:href="#DejaVuSans-74"/>
      <use x="408.69140625" xlink:href="#DejaVuSans-65"/>
      <use x="470.21484375" xlink:href="#DejaVuSans-72"/>
      <use x="509.078125" xlink:href="#DejaVuSans-65"/>
      <use x="570.6015625" xlink:href="#DejaVuSans-64"/>
      <use x="634.078125" xlink:href="#DejaVuSans-20"/>
      <use x="665.865234375" xlink:href="#DejaVuSans-42"/>
      <use x="734.46875" xlink:href="#DejaVuSans-61"/>
      <use x="795.748046875" xlink:href="#DejaVuSans-74"/>
      <use x="834.95703125" xlink:href="#DejaVuSans-63"/>
      <use x="889.9375" xlink:href="#DejaVuSans-68"/>
      <use x="953.31640625" xlink:href="#DejaVuSans-65"/>
      <use x="1014.83984375" xlink:href="#DejaVuSans-73"/>
     </g>
    </g>
   </g>
   <g id="matplotlib.axis_2">
    <g id="ytick_1">
     <g id="line2d_25">
      <path clip-path="url(#p124b8dd147)" d="
M54 252
L388.8 252" style="fill:none;stroke:#a6a6a6;stroke-dasharray:1.000000,3.000000;stroke-dashoffset:0.0;stroke-width:0.5;"/>
     </g>
     <g id="line2d_26">
      <defs>
       <path d="
M0 0
L4 0" id="m728421d6d4" style="stroke:#000000;stroke-width:0.5;"/>
      </defs>
      <g>
       <use style="stroke:#000000;stroke-width:0.5;" x="54.0" xlink:href="#m728421d6d4" y="252.0"/>
      </g>
     </g>
     <g id="line2d_27">
      <defs>
       <path d="
M0 0
L-4 0" id="mcb0005524f" style="stroke:#000000;stroke-width:0.5;"/>
      </defs>
      <g>
       <use style="stroke:#000000;stroke-width:0.5;" x="388.8" xlink:href="#mcb0005524f" y="252.0"/>
      </g>
     </g>
     <g id="text_9">
      <!-- 0 -->
      <g transform="translate(44.9609375 254.759375)scale(0.1 -0.1)">
       <use xlink:href="#DejaVuSans-30"/>
      </g>
     </g>
    </g>
    <g id="ytick_2">
     <g id="line2d_28">
      <path clip-path="url(#p124b8dd147)" d="
M54 222.24
L388.8 222.24" style="fill:none;stroke:#a6a6a6;stroke-dasharray:1.000000,3.000000;stroke-dashoffset:0.0;stroke-width:0.5;"/>
     </g>
     <g id="line2d_29">
      <g>
       <use style="stroke:#000000;stroke-width:0.5;" x="54.0" xlink:href="#m728421d6d4" y="222.24"/>
      </g>
     </g>
     <g id="line2d_30">
      <g>
       <use style="stroke:#000000;stroke-width:0.5;" x="388.8" xlink:href="#mcb0005524f" y="222.24"/>
      </g>
     </g>
     <g id="text_10">
      <!-- 10 -->
      <g transform="translate(39.0375 224.999375)scale(0.1 -0.1)">
       <use xlink:href="#DejaVuSans-31"/>
       <use x="63.623046875" xlink:href="#DejaVuSans-30"/>
      </g>
     </g>
    </g>
    <g id="ytick_3">
     <g id="line2d_31">
      <path clip-path="url(#p124b8dd147)" d="
M54 192.48
L388.8 192.48" style="fill:none;stroke:#a6a6a6;stroke-dasharray:1.000000,3.000000;stroke-dashoffset:0.0;stroke-width:0.5;"/>
     </g>
     <g id="line2d_32">
      <g>
       <use style="stroke:#000000;stroke-width:0.5;" x="54.0" xlink:href="#m728421d6d4" y="192.48"/>
      </g>
     </g>
     <g id="line2d_33">
      <g>
       <use style="stroke:#000000;stroke-width:0.5;" x="388.8" xlink:href="#mcb0005524f" y="192.48"/>
      </g>
     </g>
     <g id="text_11">
      <!-- 20 -->
      <g transform="translate(38.671875 195.239375)scale(0.1 -0.1)">
       <use xlink:href="#DejaVuSans-32"/>
       <use x="63.623046875" xlink:href="#DejaVuSans-30"/>
      </g>
     </g>
    </g>
    <g id="ytick_4">
     <g id="line2d_34">
      <path clip-path="url(#p124b8dd147)" d="
M54 162.72
L388.8 162.72" style="fill:none;stroke:#a6a6a6;stroke-dasharray:1.000000,3.000000;stroke-dashoffset:0.0;stroke-width:0.5;"/>
     </g>
     <g id="line2d_35">
      <g>
       <use style="stroke:#000000;stroke-width:0.5;" x="54.0" xlink:href="#m728421d6d4" y="162.72"/>
      </g>
     </g>
     <g id="line2d_36">
      <g>
       <use style="stroke:#000000;stroke-width:0.5;" x="388.8" xlink:href="#mcb0005524f" y="162.72"/>
      </g>
     </g>
     <g id="text_12">
      <!-- 30 -->
      <g transform="translate(38.7015625 165.479375)scale(0.1 -0.1)">
       <use xlink:href="#DejaVuSans-33"/>
       <use x="63.623046875" xlink:href="#DejaVuSans-30"/>
      </g>
     </g>
    </g>
    <g id="ytick_5">
     <g id="line2d_37">
      <path clip-path="url(#p124b8dd147)" d="
M54 132.96
L388.8 132.96" style="fill:none;stroke:#a6a6a6;stroke-dasharray:1.000000,3.000000;stroke-dashoffset:0.0;stroke-width:0.5;"/>
     </g>
     <g id="line2d_38">
      <g>
       <use style="stroke:#000000;stroke-width:0.5;" x="54.0" xlink:href="#m728421d6d4" y="132.96"/>
      </g>
     </g>
     <g id="line2d_39">
      <g>
       <use style="stroke:#000000;stroke-width:0.5;" x="388.8" xlink:href="#mcb0005524f" y="132.96"/>
      </g>
     </g>
     <g id="text_13">
      <!-- 40 -->
      <g transform="translate(38.428125 135.719375)scale(0.1 -0.1)">
       <use xlink:href="#DejaVuSans-34"/>
       <use x="63.623046875" xlink:href="#DejaVuSans-30"/>
      </g>
     </g>
    </g>
    <g id="ytick_6">
     <g id="line2d_40">
      <path clip-path="url(#p124b8dd147)" d="
M54 103.2
L388.8 103.2" style="fill:none;stroke:#a6a6a6;stroke-dasharray:1.000000,3.000000;stroke-dashoffset:0.0;stroke-width:0.5;"/>
     </g>
     <g id="line2d_41">
      <g>
       <use style="stroke:#000000;stroke-width:0.5;" x="54.0" xlink:href="#m728421d6d4" y="103.2"/>
      </g>
     </g>
     <g id="line2d_42">
      <g>
       <use style="stroke:#000000;stroke-width:0.5;" x="388.8" xlink:href="#mcb0005524f" y="103.2"/>
      </g>
     </g>
     <g id="text_14">
      <!-- 50 -->
      <g transform="translate(38.7109375 105.959375)scale(0.1 -0.1)">
       <use xlink:href="#DejaVuSans-35"/>
       <use x="63.623046875" xlink:href="#DejaVuSans-30"/>
      </g>
     </g>
    </g>
    <g id="ytick_7">
     <g id="line2d_43">
      <path clip-path="url(#p124b8dd147)" d="
M54 73.44
L388.8 73.44" style="fill:none;stroke:#a6a6a6;stroke-dasharray:1.000000,3.000000;stroke-dashoffset:0.0;stroke-width:0.5;"/>
     </g>
     <g id="line2d_44">
      <g>
       <use style="stroke:#000000;stroke-width:0.5;" x="54.0" xlink:href="#m728421d6d4" y="73.44"/>
      </g>
     </g>
     <g id="line2d_45">
      <g>
       <use style="stroke:#000000;stroke-width:0.5;" x="388.8" xlink:href="#mcb0005524f" y="73.44"/>
      </g>
     </g>
     <g id="text_15">
      <!-- 60 -->
      <g transform="translate(38.6375 76.199375)scale(0.1 -0.1)">
       <use xlink:href="#DejaVuSans-36"/>
       <use x="63.623046875" xlink:href="#DejaVuSans-30"/>
      </g>
     </g>
    </g>
    <g id="ytick_8">
     <g id="line2d_46">
      <path clip-path="url(#p124b8dd147)" d="
M54 43.68
L388.8 43.68" style="fill:none;stroke:#a6a6a6;stroke-dasharray:1.000000,3.000000;stroke-dashoffset:0.0;stroke-width:0.5;"/>
     </g>
     <g id="line2d_47">
      <g>
       <use style="stroke:#000000;stroke-width:0.5;" x="54.0" xlink:href="#m728421d6d4" y="43.68"/>
      </g>
     </g>
     <g id="line2d_48">
      <g>
       <use style="stroke:#000000;stroke-width:0.5;" x="388.8" xlink:href="#mcb0005524f" y="43.68"/>
      </g>
     </g>
     <g id="text_16">
      <!-- 70 -->
      <g transform="translate(38.759375 46.439375)scale(0.1 -0.1)">
       <use xlink:href="#DejaVuSans-37"/>
       <use x="63.623046875" xlink:href="#DejaVuSans-30"/>
      </g>
     </g>
    </g>
    <g id="text_17">
     <!-- Avg. Accuracy % -->
     <defs>
      <path d="
M10.6875 12.4062
L21 12.4062
L21 0
L10.6875 0
z
" id="DejaVuSans-2e"/>
      <path d="
M32.1719 -5.07812
Q28.375 -14.8438 24.75 -17.8125
Q21.1406 -20.7969 15.0938 -20.7969
L7.90625 -20.7969
L7.90625 -13.2812
L13.1875 -13.2812
Q16.8906 -13.2812 18.9375 -11.5156
Q21 -9.76562 23.4844 -3.21875
L25.0938 0.875
L2.98438 54.6875
L12.5 54.6875
L29.5938 11.9219
L46.6875 54.6875
L56.2031 54.6875
z
" id="DejaVuSans-79"/>
      <path d="
M34.1875 63.1875
L20.7969 26.9062
L47.6094 26.9062
z

M28.6094 72.9062
L39.7969 72.9062
L67.5781 0
L57.3281 0
L50.6875 18.7031
L17.8281 18.7031
L11.1875 0
L0.78125 0
z
" id="DejaVuSans-41"/>
      <path d="
M72.7031 32.0781
Q68.4531 32.0781 66.0312 28.4688
Q63.625 24.8594 63.625 18.4062
Q63.625 12.0625 66.0312 8.42188
Q68.4531 4.78125 72.7031 4.78125
Q76.8594 4.78125 79.2656 8.42188
Q81.6875 12.0625 81.6875 18.4062
Q81.6875 24.8125 79.2656 28.4375
Q76.8594 32.0781 72.7031 32.0781
M72.7031 38.2812
Q80.4219 38.2812 84.9531 32.9062
Q89.5 27.5469 89.5 18.4062
Q89.5 9.28125 84.9375 3.92188
Q80.375 -1.42188 72.7031 -1.42188
Q64.8906 -1.42188 60.3438 3.92188
Q55.8125 9.28125 55.8125 18.4062
Q55.8125 27.5938 60.375 32.9375
Q64.9375 38.2812 72.7031 38.2812
M22.3125 68.0156
Q18.1094 68.0156 15.6875 64.375
Q13.2812 60.75 13.2812 54.3906
Q13.2812 47.9531 15.6719 44.3281
Q18.0625 40.7188 22.3125 40.7188
Q26.5625 40.7188 28.9688 44.3281
Q31.3906 47.9531 31.3906 54.3906
Q31.3906 60.6875 28.9531 64.3438
Q26.5156 68.0156 22.3125 68.0156
M66.4062 74.2188
L74.2188 74.2188
L28.6094 -1.42188
L20.7969 -1.42188
z

M22.3125 74.2188
Q30.0312 74.2188 34.6094 68.875
Q39.2031 63.5312 39.2031 54.3906
Q39.2031 45.1719 34.6406 39.8438
Q30.0781 34.5156 22.3125 34.5156
Q14.5469 34.5156 10.0312 39.8594
Q5.51562 45.2188 5.51562 54.3906
Q5.51562 63.4844 10.0469 68.8438
Q14.5938 74.2188 22.3125 74.2188" id="DejaVuSans-25"/>
      <path d="
M45.4062 27.9844
Q45.4062 37.75 41.375 43.1094
Q37.3594 48.4844 30.0781 48.4844
Q22.8594 48.4844 18.8281 43.1094
Q14.7969 37.75 14.7969 27.9844
Q14.7969 18.2656 18.8281 12.8906
Q22.8594 7.51562 30.0781 7.51562
Q37.3594 7.51562 41.375 12.8906
Q45.4062 18.2656 45.4062 27.9844
M54.3906 6.78125
Q54.3906 -7.17188 48.1875 -13.9844
Q42 -20.7969 29.2031 -20.7969
Q24.4688 -20.7969 20.2656 -20.0938
Q16.0625 -19.3906 12.1094 -17.9219
L12.1094 -9.1875
Q16.0625 -11.3281 19.9219 -12.3438
Q23.7812 -13.375 27.7812 -13.375
Q36.625 -13.375 41.0156 -8.76562
Q45.4062 -4.15625 45.4062 5.17188
L45.4062 9.625
Q42.625 4.78125 38.2812 2.39062
Q33.9375 0 27.875 0
Q17.8281 0 11.6719 7.65625
Q5.51562 15.3281 5.51562 27.9844
Q5.51562 40.6719 11.6719 48.3281
Q17.8281 56 27.875 56
Q33.9375 56 38.2812 53.6094
Q42.625 51.2188 45.4062 46.3906
L45.4062 54.6875
L54.3906 54.6875
z
" id="DejaVuSans-67"/>
      <path d="
M2.98438 54.6875
L12.5 54.6875
L29.5938 8.79688
L46.6875 54.6875
L56.2031 54.6875
L35.6875 0
L23.4844 0
z
" id="DejaVuSans-76"/>
     </defs>
     <g transform="translate(31.3484375 181.73046875)rotate(-90.0)scale(0.1 -0.1)">
      <use xlink:href="#DejaVuSans-41"/>
      <use x="62.533203125" xlink:href="#DejaVuSans-76"/>
      <use x="121.712890625" xlink:href="#DejaVuSans-67"/>
      <use x="185.189453125" xlink:href="#DejaVuSans-2e"/>
      <use x="216.9765625" xlink:href="#DejaVuSans-20"/>
      <use x="248.763671875" xlink:href="#DejaVuSans-41"/>
      <use x="315.421875" xlink:href="#DejaVuSans-63"/>
      <use x="370.40234375" xlink:href="#DejaVuSans-63"/>
      <use x="425.3828125" xlink:href="#DejaVuSans-75"/>
      <use x="488.76171875" xlink:href="#DejaVuSans-72"/>
      <use x="529.875" xlink:href="#DejaVuSans-61"/>
      <use x="591.154296875" xlink:href="#DejaVuSans-63"/>
      <use x="646.134765625" xlink:href="#DejaVuSans-79"/>
      <use x="705.314453125" xlink:href="#DejaVuSans-20"/>
      <use x="737.1015625" xlink:href="#DejaVuSans-25"/>
     </g>
    </g>
   </g>
   <g id="patch_3">
    <path d="
M54 28.8
L388.8 28.8" style="fill:none;stroke:#000000;"/>
   </g>
   <g id="patch_4">
    <path d="
M388.8 252
L388.8 28.8" style="fill:none;stroke:#000000;"/>
   </g>
   <g id="patch_5">
    <path d="
M54 252
L388.8 252" style="fill:none;stroke:#000000;"/>
   </g>
   <g id="patch_6">
    <path d="
M54 252
L54 28.8" style="fill:none;stroke:#000000;"/>
   </g>
   <g id="text_18">
    <!-- Mid-CaffeNet -->
    <defs>
     <path d="
M9.8125 72.9062
L24.5156 72.9062
L43.1094 23.2969
L61.8125 72.9062
L76.5156 72.9062
L76.5156 0
L66.8906 0
L66.8906 64.0156
L48.0938 14.0156
L38.1875 14.0156
L19.3906 64.0156
L19.3906 0
L9.8125 0
z
" id="DejaVuSans-4d"/>
     <path d="
M9.8125 72.9062
L23.0938 72.9062
L55.4219 11.9219
L55.4219 72.9062
L64.9844 72.9062
L64.9844 0
L51.7031 0
L19.3906 60.9844
L19.3906 0
L9.8125 0
z
" id="DejaVuSans-4e"/>
     <path d="
M4.89062 31.3906
L31.2031 31.3906
L31.2031 23.3906
L4.89062 23.3906
z
" id="DejaVuSans-2d"/>
     <path d="
M9.42188 54.6875
L18.4062 54.6875
L18.4062 0
L9.42188 0
z

M9.42188 75.9844
L18.4062 75.9844
L18.4062 64.5938
L9.42188 64.5938
z
" id="DejaVuSans-69"/>
     <path d="
M64.4062 67.2812
L64.4062 56.8906
Q59.4219 61.5312 53.7812 63.8125
Q48.1406 66.1094 41.7969 66.1094
Q29.2969 66.1094 22.6562 58.4688
Q16.0156 50.8281 16.0156 36.375
Q16.0156 21.9688 22.6562 14.3281
Q29.2969 6.6875 41.7969 6.6875
Q48.1406 6.6875 53.7812 8.98438
Q59.4219 11.2812 64.4062 15.9219
L64.4062 5.60938
Q59.2344 2.09375 53.4375 0.328125
Q47.6562 -1.42188 41.2188 -1.42188
Q24.6562 -1.42188 15.125 8.70312
Q5.60938 18.8438 5.60938 36.375
Q5.60938 53.9531 15.125 64.0781
Q24.6562 74.2188 41.2188 74.2188
Q47.75 74.2188 53.5312 72.4844
Q59.3281 70.75 64.4062 67.2812" id="DejaVuSans-43"/>
     <path d="
M37.1094 75.9844
L37.1094 68.5
L28.5156 68.5
Q23.6875 68.5 21.7969 66.5469
Q19.9219 64.5938 19.9219 59.5156
L19.9219 54.6875
L34.7188 54.6875
L34.7188 47.7031
L19.9219 47.7031
L19.9219 0
L10.8906 0
L10.8906 47.7031
L2.29688 47.7031
L2.29688 54.6875
L10.8906 54.6875
L10.8906 58.5
Q10.8906 67.625 15.1406 71.7969
Q19.3906 75.9844 28.6094 75.9844
z
" id="DejaVuSans-66"/>
    </defs>
    <g transform="translate(182.9990625 23.8)scale(0.12 -0.12)">
     <use xlink:href="#DejaVuSans-4d"/>
     <use x="86.279296875" xlink:href="#DejaVuSans-69"/>
     <use x="114.0625" xlink:href="#DejaVuSans-64"/>
     <use x="177.5390625" xlink:href="#DejaVuSans-2d"/>
     <use x="213.623046875" xlink:href="#DejaVuSans-43"/>
     <use x="283.447265625" xlink:href="#DejaVuSans-61"/>
     <use x="344.7265625" xlink:href="#DejaVuSans-66"/>
     <use x="379.931640625" xlink:href="#DejaVuSans-66"/>
     <use x="415.13671875" xlink:href="#DejaVuSans-65"/>
     <use x="476.66015625" xlink:href="#DejaVuSans-4e"/>
     <use x="551.46484375" xlink:href="#DejaVuSans-65"/>
     <use x="612.98828125" xlink:href="#DejaVuSans-74"/>
    </g>
   </g>
   <g id="legend_1">
    <g id="patch_7">
     <path d="
M67 88.8344
L158.981 88.8344
L158.981 41.8
L67 41.8
L67 88.8344
z
" style="fill:#ffffff;opacity:0.4;stroke:#000000;"/>
    </g>
    <g id="line2d_49">
     <path d="
M74 49.8984
L88 49.8984" style="fill:none;stroke:#d62728;stroke-linecap:square;stroke-width:2;"/>
    </g>
    <g id="line2d_50"/>
    <g id="patch_8">
     <path d="
M71 53.3984
L91 53.3984
L91 46.3984
L71 46.3984
z
" style="fill:#d62728;opacity:0.4;stroke:#d62728;"/>
    </g>
    <g id="text_19">
     <!-- Naive -->
     <g transform="translate(99.0 53.3984375)scale(0.1 -0.1)">
      <use xlink:href="#DejaVuSans-4e"/>
      <use x="74.8046875" xlink:href="#DejaVuSans-61"/>
      <use x="136.083984375" xlink:href="#DejaVuSans-69"/>
      <use x="163.8671875" xlink:href="#DejaVuSans-76"/>
      <use x="223.046875" xlink:href="#DejaVuSans-65"/>
     </g>
    </g>
    <g id="line2d_51">
     <path d="
M74 64.5766
L88 64.5766" style="fill:none;stroke:#2ca02c;stroke-linecap:square;stroke-width:2;"/>
    </g>
    <g id="line2d_52"/>
    <g id="patch_9">
     <path d="
M71 68.0766
L91 68.0766
L91 61.0766
L71 61.0766
z
" style="fill:#2ca02c;opacity:0.4;stroke:#2ca02c;"/>
    </g>
    <g id="text_20">
     <!-- CWR -->
     <defs>
      <path d="
M44.3906 34.1875
Q47.5625 33.1094 50.5625 29.5938
Q53.5625 26.0781 56.5938 19.9219
L66.6094 0
L56 0
L46.6875 18.7031
Q43.0625 26.0312 39.6719 28.4219
Q36.2812 30.8125 30.4219 30.8125
L19.6719 30.8125
L19.6719 0
L9.8125 0
L9.8125 72.9062
L32.0781 72.9062
Q44.5781 72.9062 50.7344 67.6719
Q56.8906 62.4531 56.8906 51.9062
Q56.8906 45.0156 53.6875 40.4688
Q50.4844 35.9375 44.3906 34.1875
M19.6719 64.7969
L19.6719 38.9219
L32.0781 38.9219
Q39.2031 38.9219 42.8438 42.2188
Q46.4844 45.5156 46.4844 51.9062
Q46.4844 58.2969 42.8438 61.5469
Q39.2031 64.7969 32.0781 64.7969
z
" id="DejaVuSans-52"/>
      <path d="
M3.32812 72.9062
L13.2812 72.9062
L28.6094 11.2812
L43.8906 72.9062
L54.9844 72.9062
L70.3125 11.2812
L85.5938 72.9062
L95.6094 72.9062
L77.2969 0
L64.8906 0
L49.5156 63.2812
L33.9844 0
L21.5781 0
z
" id="DejaVuSans-57"/>
     </defs>
     <g transform="translate(99.0 68.0765625)scale(0.1 -0.1)">
      <use xlink:href="#DejaVuSans-43"/>
      <use x="69.82421875" xlink:href="#DejaVuSans-57"/>
      <use x="168.701171875" xlink:href="#DejaVuSans-52"/>
     </g>
    </g>
    <g id="line2d_53">
     <path d="
M74 79.2547
L88 79.2547" style="fill:none;stroke:#1f77b4;stroke-linecap:square;stroke-width:2;"/>
    </g>
    <g id="line2d_54"/>
    <g id="patch_10">
     <path d="
M71 82.7547
L91 82.7547
L91 75.7547
L71 75.7547
z
" style="fill:#1f77b4;opacity:0.4;stroke:#1f77b4;"/>
    </g>
    <g id="text_21">
     <!-- Cumulative -->
     <defs>
      <path d="
M52 44.1875
Q55.375 50.25 60.0625 53.125
Q64.75 56 71.0938 56
Q79.6406 56 84.2812 50.0156
Q88.9219 44.0469 88.9219 33.0156
L88.9219 0
L79.8906 0
L79.8906 32.7188
Q79.8906 40.5781 77.0938 44.375
Q74.3125 48.1875 68.6094 48.1875
Q61.625 48.1875 57.5625 43.5469
Q53.5156 38.9219 53.5156 30.9062
L53.5156 0
L44.4844 0
L44.4844 32.7188
Q44.4844 40.625 41.7031 44.4062
Q38.9219 48.1875 33.1094 48.1875
Q26.2188 48.1875 22.1562 43.5312
Q18.1094 38.875 18.1094 30.9062
L18.1094 0
L9.07812 0
L9.07812 54.6875
L18.1094 54.6875
L18.1094 46.1875
Q21.1875 51.2188 25.4844 53.6094
Q29.7812 56 35.6875 56
Q41.6562 56 45.8281 52.9688
Q50 49.9531 52 44.1875" id="DejaVuSans-6d"/>
      <path d="
M9.42188 75.9844
L18.4062 75.9844
L18.4062 0
L9.42188 0
z
" id="DejaVuSans-6c"/>
     </defs>
     <g transform="translate(99.0 82.7546875)scale(0.1 -0.1)">
      <use xlink:href="#DejaVuSans-43"/>
      <use x="69.82421875" xlink:href="#DejaVuSans-75"/>
      <use x="133.203125" xlink:href="#DejaVuSans-6d"/>
      <use x="230.615234375" xlink:href="#DejaVuSans-75"/>
      <use x="293.994140625" xlink:href="#DejaVuSans-6c"/>
      <use x="321.77734375" xlink:href="#DejaVuSans-61"/>
      <use x="383.056640625" xlink:href="#DejaVuSans-74"/>
      <use x="422.265625" xlink:href="#DejaVuSans-69"/>
      <use x="450.048828125" xlink:href="#DejaVuSans-76"/>
      <use x="509.228515625" xlink:href="#DejaVuSans-65"/>
     </g>
    </g>
   </g>
  </g>
 </g>
 <defs>
  <clipPath id="p124b8dd147">
   <rect height="223.2" width="334.8" x="54.0" y="28.8"/>
  </clipPath>
 </defs>
</svg>
